<svg xmlns="http://www.w3.org/2000/svg" viewBox="0 0 48 48" width="20" height="20"><path fill="#EA4335" d="M24 9.5c3.54 0 6.7 1.22 9.2 3.62l6.88-6.9C36.12 2.86 30.5 0.5 24 0.5 14.66 0.5 6.99 5.95 3.11 13.63l7.9 6.12C12.27 14.2 17.5 9.5 24 9.5z"/><path fill="#FBBC05" d="M46.54 20.5H24v8.99h12.74c-1.12 3.24-4.22 6.05-8.54 6.05-5.17 0-9.38-4.18-9.38-9.34 0-5.16 4.21-9.34 9.38-9.34 2.5 0 4.79.95 6.53 2.49l6.28-6.05C36.82 8.07 30.9 5 24 5 13.95 5 5.59 10.95 1.89 20.06l7.94 6.14C12.9 18.51 17.95 13.5 24 13.5c3.87 0 7.35 1.53 9.77 4z"/><path fill="#34A853" d="M24 44.5c6.58 0 12.31-2.46 16.86-6.47l-7.96-6.09C30.44 33.9 27.44 34.5 24 34.5c-6.06 0-11.46-5.01-12.18-11.16L3.92 29.5C7.62 38.55 15.98 44.5 24 44.5z"/><path fill="#4285F4" d="M46.54 20.5H24v8.99h12.74c-1.01 2.9-3.24 5.22-6.01 6.67 2.92 1.64 6.35 2.59 9.81 2.59 3.61 0 6.89-1.26 9.33-3.41l-7.97-6.09c-1.59 1.36-3.78 2.05-5.82 2.05-2.73 0-5.14-1.46-6.57-3.69H46.54z"/></svg>